<?xml version="1.0" encoding="UTF-8"?>
<svg id="d" data-name="ELITESTEAD_Brandlogo" xmlns="http://www.w3.org/2000/svg" viewBox="0 0 2048 2048">
  <g id="e" data-name="Original">
    <g>
      <rect x="1290.62" y="655.652" width="703.25" height="12" fill="#15294c"/>
      <rect x="54.13" y="655.652" width="703.25" height="12" fill="#E11A22"/>
    </g>
    <g>
      <path d="M1024,432.663l-214.72,214.72h145.84l68.88-68.88,68.88,68.88h145.84l-214.72-214.72ZM1024,545.043l-85.52,85.52v.01h-32.21l117.73-117.73,117.73,117.73h-32.21l-85.52-85.53Z" fill="#ca3133"/>
      <polygon points="1035.478 799.147 1141.732 692.882 1109.524 692.882 1024 778.406 938.476 692.882 906.268 692.882 1012.522 799.147 1012.522 879.322 809.278 676.078 955.12 676.078 1024 744.959 1092.88 676.078 1238.722 676.078 1035.478 879.322 1035.478 799.147" fill="#15294c"/>
      <polygon points="1024 512.835 906.268 630.567 938.476 630.567 1024 545.043 1024 578.502 955.12 647.382 809.278 647.382 1024 432.66 1024 512.835" fill="#E11A22"/>
    </g>
    <g>
      <path d="M302.7,1133.338c-24.54,40.04-42.51,47.35-77.77,47.35h-19.01c-10.71,0-13.82-5.26-13.82-13.74v-84.18h20.39c33.87,0,42.17,9.65,50.46,29.82h4.15v-66.35h-4.15c-7.95,18.7-16.59,27.18-50.46,27.18h-20.39v-89.15h28.69c38.36,0,51.49,9.06,72.58,41.51h4.15l-4.84-49.69H116.06v3.51c23.5,0,24.89,14.61,24.89,36.24v133.28c0,21.63-1.39,36.24-24.89,36.24v3.51h181.8l8.99-55.53h-4.15Z" fill="#E11A22"/>
      <path d="M491.75,1126.028c-25.23,41.21-44.93,54.66-76.04,54.66h-10.71c-9.33,0-12.44-4.68-12.44-12.28v-152.57c0-21.63,1.38-36.24,24.88-36.24v-3.51h-100.92v3.51c23.5,0,24.88,14.61,24.88,36.24v133.28c0,21.63-1.38,36.24-24.88,36.24v3.51h169.36l10.02-62.84h-4.15Z" fill="#E11A22"/>
      <path d="M604.77,979.598v-3.51h-100.92v3.51c23.5,0,24.88,14.61,24.88,36.24v133.28c0,21.63-1.38,36.24-24.88,36.24v3.51h100.92v-3.51c-23.5,0-24.88-14.61-24.88-36.24v-133.28c0-21.63,1.38-36.24,24.88-36.24Z" fill="#E11A22"/>
      <path d="M812.15,976.088h-192.86l-5.19,49.69h4.15c21.08-32.45,33.52-41.51,63.59-41.51h8.3v164.85c0,21.63-1.38,36.24-24.89,36.24v3.51h100.93v-3.51c-23.51,0-24.89-14.61-24.89-36.24v-164.85h8.3c30.41,0,42.51,9.06,63.59,41.51h4.15l-5.18-49.69Z" fill="#E11A22"/>
      <path d="M1012.95,1133.338c-24.54,40.04-42.51,47.35-77.77,47.35h-19.01c-10.71,0-13.82-5.26-13.82-13.74v-84.18h20.39c33.87,0,42.17,9.65,50.46,29.82h4.15v-66.35h-4.15c-7.95,18.7-16.59,27.18-50.46,27.18h-20.39v-89.15h28.68c38.37,0,51.5,9.06,72.59,41.51h4.14l-4.84-49.69h-176.61v3.51c23.5,0,24.88,14.61,24.88,36.24v133.28c0,21.63-1.38,36.24-24.88,36.24v3.51h181.8l8.98-55.53h-4.14Z" fill="#E11A22"/>
      <path d="M1124.29,1060.378l-17.527-7.34c-21.574-9.11-38.428-20.29-38.428-42.93,0-19.99,12.475-34.1,38.087-34.1,26.637,0,42.974,19.2,61.183,49.77h3.96l-4.945-49.28c-16.444-4.67-40.487-8.72-57.165-8.72-43.822,0-73.151,27.33-73.151,64.37,0,36.45,27.31,53.81,46.182,61.74l17.868,6.72c27.31,11.17,48.543,27.09,48.543,51.49,0,22.63-16.854,37.03-44.154,37.03-33.045,0-53.264-20.23-69.786-55.79h-4.048l8.856,55.53c16.844,4.87,42.028,8.5,58.901,8.5,48.884,0,82.26-28.82,82.26-69.38,0-37.04-27.31-55.55-56.638-67.61Z" fill="#152a4c"/>
      <path d="M1354.001,976.088h-170.551l-4.581,49.69h3.67c18.641-32.45,29.643-41.51,56.234-41.51h7.34v164.85c0,21.63-1.22,36.24-22.011,36.24v3.51h89.255v-3.51c-20.79,0-22.011-14.61-22.011-36.24v-164.85h7.34c26.892,0,37.592,9.06,56.234,41.51h3.67l-4.59-49.69Z" fill="#152a4c"/>
      <path d="M1527.582,1133.338c-21.701,40.04-37.602,47.35-68.774,47.35h-16.811c-9.471,0-12.221-5.26-12.221-13.74v-84.18h18.032c29.952,0,37.283,9.65,44.623,29.82h3.67v-66.35h-3.67c-7.03,18.7-14.671,27.18-44.623,27.18h-18.032v-89.15h25.363c33.931,0,45.543,9.06,64.184,41.51h3.67l-4.28-49.69h-156.181v3.51c20.782,0,22.002,14.61,22.002,36.24v133.28c0,21.63-1.22,36.24-22.002,36.24v3.51h160.77l7.941-55.53h-3.661Z" fill="#152a4c"/>
      <path d="M1698.434,1151.458l-68.464-179.46h-7.65l-58.984,156.08c-13.141,35.07-21.701,53.48-32.402,57.28v3.51h52.573v-3.51c-19.871-3.8-22.621-21.33-9.78-55.53l2.441-6.43h64.193l13.141,35.95c5.801,16.37.301,24.84-17.731,26.01v3.51h90.475v-3.51c-12.84-1.17-18.951-10.23-27.812-33.9ZM1580.146,1112.588l28.422-75.41,27.812,75.41h-56.234Z" fill="#152a4c"/>
      <path d="M1821.603,976.088h-95.056v3.51c20.782,0,22.002,14.61,22.002,36.24v133.28c0,21.63-1.22,36.24-22.002,36.24v3.51h92.606c70.304,0,112.787-41.21,112.787-109.02,0-66.64-38.512-103.76-110.337-103.76ZM1822.823,1180.688c-23.231,0-29.032-5.85-29.032-18.71v-167.18c0-7.02,4.271-10.53,11.611-10.53h15.591c44.924,0,62.044,38,62.044,97.33,0,64.6-16.51,99.09-60.214,99.09Z" fill="#152a4c"/>
    </g>
  </g>
</svg>